<!-- Generated by IcoMoon.io -->
<svg version="1.1" xmlns="http://www.w3.org/2000/svg" width="38" height="32" viewBox="0 0 38 32">
<title>envelope-hover</title>
<path d="M34.478 1.9h-30.55c-1.944 0-3.525 1.581-3.525 3.525v21.15c0 1.944 1.581 3.525 3.525 3.525h30.55c1.944 0 3.525-1.581 3.525-3.525v-21.15c0-1.944-1.581-3.525-3.525-3.525zM34.478 4.25c0.159 0 0.312 0.033 0.45 0.091l-15.725 13.629-15.725-13.629c0.139-0.058 0.291-0.091 0.45-0.091h30.55zM34.478 27.75h-30.55c-0.648 0-1.175-0.527-1.175-1.175v-19.751l15.68 13.589c0.222 0.192 0.495 0.287 0.77 0.287s0.548-0.095 0.77-0.287l15.68-13.589v19.751c0 0.648-0.527 1.175-1.175 1.175z"></path>
</svg>
